<svg width="10" height="10" viewBox="0 0 10 10" fill="none" xmlns="http://www.w3.org/2000/svg">
<path d="M8.93741 8.72122C8.95684 8.73579 8.97262 8.75469 8.98348 8.77642C8.99434 8.79815 9 8.82211 9 8.8464C9 8.87069 8.99434 8.89465 8.98348 8.91638C8.97262 8.93811 8.95684 8.95701 8.93741 8.97158C8.90994 8.99905 8.88184 8.99905 8.82627 8.99905C8.78715 9.00324 8.7478 8.99352 8.71514 8.97158L4.98954 5.24354L1.26395 8.97158C1.23648 8.99905 1.20838 8.99905 1.15281 8.99905C1.11369 9.00319 1.07436 8.99347 1.04168 8.97158C1.01462 8.93545 1 8.89153 1 8.8464C1 8.80126 1.01462 8.75734 1.04168 8.72122L4.75322 5.00659L1.04168 1.2926C1.01472 1.25643 1.00016 1.21253 1.00016 1.16742C1.00016 1.12231 1.01472 1.0784 1.04168 1.04224C1.07249 1.01541 1.11196 1.00064 1.15281 1.00064C1.19366 1.00064 1.23314 1.01541 1.26395 1.04224L4.98954 4.76836L8.7145 1.0416C8.74531 1.01477 8.78478 1 8.82563 1C8.86648 1 8.90596 1.01477 8.93677 1.0416C8.95609 1.05625 8.97176 1.07518 8.98254 1.09689C8.99333 1.11861 8.99894 1.14253 8.99894 1.16678C8.99894 1.19103 8.99333 1.21495 8.98254 1.23667C8.97176 1.25838 8.95609 1.27731 8.93677 1.29196L5.22586 5.00659L8.93741 8.72122Z" fill="black" stroke="black"/>
</svg>
