<svg width="29" height="28" xmlns="http://www.w3.org/2000/svg" xmlns:xlink="http://www.w3.org/1999/xlink" xml:space="preserve" overflow="hidden"><g transform="translate(-137 -260)"><path d="M8.71035 0.62207 18.3833 0.62207 26.4127 8.65157 26.4127 24.1472C26.4123 25.9111 24.8795 27.375 22.9428 27.3752L8.62558 27.3752C6.68081 27.3752 5.14784 25.9108 5.14746 24.1472L5.14746 3.85137C5.14742 2.09705 6.75531 0.622299 8.71035 0.62207Z" stroke="#DBDBDB" stroke-width="0.686" fill="#FFFFFF" transform="matrix(1.03571 0 0 1 137 260)"/><path d="M18.5416 5.87667 18.5416 0.278907 26.756 8.51091 21.2797 8.51091C18.8154 8.51091 18.4275 6.75475 18.5416 5.87667Z" fill="#D4D4D8" transform="matrix(1.03571 0 0 1 137 260)"/><path d="M20.915 13.3164C22.0516 13.3164 22.973 14.2378 22.973 15.3744L22.973 21.0024C22.973 22.139 22.0516 23.0604 20.915 23.0604L2.74296 23.0604C1.60636 23.0604 0.684961 22.139 0.684961 21.0024L0.684961 15.3744C0.684961 14.2378 1.60636 13.3164 2.74296 13.3164Z" fill="#079455" transform="matrix(1.03571 0 0 1 137 260)"/><path d="M4.92152 15.7989 5.82701 17.3292 5.86209 17.3292 6.77197 15.7989 7.84409 15.7989 6.4738 18.044 7.87478 20.2891 6.78293 20.2891 5.86209 18.7565 5.82701 18.7565 4.90617 20.2891 3.81871 20.2891 5.22409 18.044 3.84502 15.7989 4.92152 15.7989ZM8.44483 20.2891 8.44483 15.7989 9.39417 15.7989 9.39417 19.5063 11.3192 19.5063 11.3192 20.2891 8.44483 20.2891ZM14.3837 17.0902C14.3661 16.9134 14.2909 16.7761 14.1579 16.6781 14.0248 16.5802 13.8443 16.5312 13.6163 16.5312 13.4614 16.5312 13.3306 16.553 13.2239 16.597 13.1172 16.6393 13.0353 16.6985 12.9783 16.7745 12.9228 16.8505 12.895 16.9368 12.895 17.0332 12.8921 17.1136 12.9089 17.1837 12.9454 17.2437 12.9834 17.3036 13.0353 17.3555 13.1011 17.3993 13.1669 17.4418 13.2429 17.479 13.3291 17.5112 13.4153 17.5419 13.5074 17.5682 13.6054 17.5902L14.0088 17.6866C14.2047 17.7304 14.3844 17.789 14.5481 17.862 14.7118 17.9351 14.8536 18.025 14.9734 18.1317 15.0933 18.2384 15.1861 18.3641 15.2519 18.5088 15.3191 18.6535 15.3535 18.8194 15.3549 19.0064 15.3535 19.2812 15.2834 19.5195 15.1445 19.7212 15.007 19.9214 14.8084 20.0771 14.5481 20.1881 14.2894 20.2979 13.9773 20.3526 13.6119 20.3526 13.2494 20.3526 12.9337 20.2971 12.6648 20.186 12.3973 20.0749 12.1883 19.9105 12.0377 19.6927 11.8886 19.4734 11.8105 19.2023 11.8031 18.8793L12.7218 18.8793C12.732 19.0299 12.7751 19.1555 12.8511 19.2564 12.9286 19.3558 13.0317 19.431 13.1603 19.4823 13.2904 19.532 13.4373 19.5567 13.601 19.5567 13.7617 19.5567 13.9013 19.5334 14.0197 19.4866 14.1396 19.4398 14.2324 19.3747 14.2982 19.2914 14.364 19.2081 14.3969 19.1124 14.3969 19.0043 14.3969 18.9034 14.3669 18.8187 14.3069 18.7499 14.2485 18.6812 14.1623 18.6228 14.0483 18.5745 13.9357 18.5263 13.7976 18.4825 13.6339 18.443L13.1449 18.3203C12.7664 18.2281 12.4675 18.0842 12.2482 17.8884 12.029 17.6925 11.9201 17.4286 11.9215 17.0968 11.9201 16.8249 11.9924 16.5875 12.1386 16.3842 12.2862 16.1811 12.4887 16.0226 12.7459 15.9085 13.0032 15.7945 13.2955 15.7375 13.6229 15.7375 13.9562 15.7375 14.247 15.7945 14.4955 15.9085 14.7455 16.0226 14.9398 16.1811 15.0787 16.3842 15.2176 16.5875 15.2891 16.8228 15.2936 17.0902L14.3837 17.0902ZM16.8837 15.7989 17.7891 17.3292 17.8242 17.3292 18.7341 15.7989 19.8062 15.7989 18.4359 18.044 19.8369 20.2891 18.745 20.2891 17.8242 18.7565 17.7891 18.7565 16.8683 20.2891 15.7808 20.2891 17.1863 18.044 15.8071 15.7989 16.8837 15.7989Z" fill="#FFFFFF" transform="matrix(1.03571 0 0 1 137 260)"/></g></svg>