<svg width="32" height="32" viewBox="0 0 32 32" fill="none" xmlns="http://www.w3.org/2000/svg">
<path d="M21.2465 1.14258H5.91191C4.54102 1.14258 3.42969 2.28288 3.42969 3.68951V28.3098C3.42969 29.7164 4.54102 30.8569 5.91191 30.8569H25.4388C26.8096 30.8569 27.921 29.7164 27.921 28.3098L28.0589 7.43088L21.2465 1.14258Z" fill="white" stroke="#B6B6B6" stroke-width="0.524025" stroke-linecap="round" stroke-linejoin="round"/>
<path d="M28.0584 7.43088H21.2461V1.14258" fill="#D9D9D9"/>
<path d="M28.0584 7.43088H21.2461V1.14258L28.0584 7.43088Z" stroke="#B6B6B6" stroke-width="0.524025" stroke-linecap="round" stroke-linejoin="round"/>
<path d="M15.4707 8.74023C20.2459 8.74023 24.1171 12.6116 24.1172 17.3867C24.1172 22.162 20.246 26.0332 15.4707 26.0332C10.6955 26.0331 6.82422 22.162 6.82422 17.3867C6.82432 12.6117 10.6956 8.74035 15.4707 8.74023ZM15.4707 13.04C13.0703 13.0402 11.1242 14.9863 11.124 17.3867C11.1241 19.7872 13.0703 21.7334 15.4707 21.7334C17.8713 21.7334 19.8174 19.7872 19.8174 17.3867C19.8173 15.0613 17.9909 13.1623 15.6943 13.0459L15.4707 13.04Z" fill="#D9BAFF" stroke="#997ABF" stroke-width="0.524025"/>
<path d="M15.4961 21.8186V25.9711" stroke="#997ABF" stroke-width="0.524025" stroke-linejoin="round"/>
<path d="M11.8198 14.8558L8.66797 12.296" stroke="#997ABF" stroke-width="0.524025" stroke-linejoin="round"/>
<path d="M19.9492 17.3867H24.0508" stroke="#997ABF" stroke-width="0.524025" stroke-linejoin="round"/>
</svg>
