<svg width="12" height="12" viewBox="0 0 12 12" fill="none" xmlns="http://www.w3.org/2000/svg">
<path d="M0.0968304 11.9025C-0.0331776 11.7725 -0.0331776 11.5612 0.0968304 11.4312L4.19452 7.33354H0.998646C0.814266 7.33354 0.665505 7.18416 0.665505 7.0004C0.665505 6.81602 0.814889 6.66726 0.998646 6.66726H4.99889C5.18327 6.66726 5.33203 6.81665 5.33203 7.0004V11.0007C5.33203 11.185 5.18265 11.3338 4.99889 11.3338C4.81451 11.3338 4.66575 11.1844 4.66575 11.0007V7.80477L0.568059 11.9025C0.438051 12.0325 0.226838 12.0325 0.0968304 11.9025Z" fill="black"/>
<path d="M7.00043 5.33276H11.0007C11.1851 5.33276 11.3338 5.18338 11.3338 4.99962C11.3338 4.81524 11.1844 4.66648 11.0007 4.66648H7.8048L11.9025 0.568785C12.0325 0.438777 12.0325 0.227516 11.9025 0.0975075C11.8375 0.0325034 11.7519 9.53674e-07 11.6668 9.53674e-07C11.5818 9.53674e-07 11.4962 0.0325018 11.4312 0.0975075L7.33351 4.1952V0.999325C7.33351 0.814945 7.18413 0.666183 7.00037 0.666183C6.81599 0.666183 6.66723 0.815568 6.66723 0.999325V4.99957C6.66723 5.18333 6.81668 5.33276 7.00043 5.33276Z" fill="black"/>
</svg>
