<svg width="20" height="20" viewBox="0 0 20 20" fill="none" xmlns="http://www.w3.org/2000/svg">
<path d="M9.02726 4.08021C9.27142 3.05609 10.7286 3.05609 10.9727 4.08022L11.2084 5.06869C11.7 7.13067 13.3529 8.71408 15.4341 9.11669C16.4058 9.30468 16.4058 10.6953 15.4341 10.8833C13.3529 11.2859 11.7 12.8693 11.2084 14.9313L10.9727 15.9198C10.7286 16.9439 9.27142 16.9439 9.02726 15.9198L8.79161 14.9313C8.30002 12.8693 6.64712 11.2859 4.56594 10.8833C3.5942 10.6953 3.5942 9.30468 4.56594 9.11669C6.64712 8.71408 8.30002 7.13067 8.79161 5.06869L9.02726 4.08021Z" fill="url(#paint0_linear_799_12883)"/>
<circle cx="16" cy="4" r="1" fill="url(#paint1_linear_799_12883)"/>
<rect x="15" y="14" width="4" height="4" fill="url(#paint2_linear_799_12883)"/>
<defs>
<linearGradient id="paint0_linear_799_12883" x1="0.697674" y1="10.0001" x2="21.6279" y2="10.0001" gradientUnits="userSpaceOnUse">
<stop stop-color="#DA2AC4"/>
<stop offset="1" stop-color="#3291FA"/>
</linearGradient>
<linearGradient id="paint1_linear_799_12883" x1="15.0698" y1="4.00001" x2="17.1628" y2="4.00001" gradientUnits="userSpaceOnUse">
<stop stop-color="#DA2AC4"/>
<stop offset="1" stop-color="#3291FA"/>
</linearGradient>
<linearGradient id="paint2_linear_799_12883" x1="15.1395" y1="16" x2="19.3256" y2="16" gradientUnits="userSpaceOnUse">
<stop stop-color="#DA2AC4"/>
<stop offset="1" stop-color="#3291FA"/>
</linearGradient>
</defs>
</svg>
