<svg width="20" height="20" viewBox="0 0 20 20" fill="none" xmlns="http://www.w3.org/2000/svg">
<path fill-rule="evenodd" clip-rule="evenodd" d="M17.9818 10.1334C17.9921 10.1025 17.9983 10.0696 18 10.0362L17.9997 10.0303C17.999 9.9795 17.9931 9.92902 17.9824 9.88003C17.9769 9.85479 17.9696 9.83027 17.9604 9.80683C17.9477 9.76061 17.9274 9.71832 17.901 9.6825C17.8745 9.64667 17.8424 9.61815 17.8066 9.5988L2.4805 2.01376C2.41405 1.99602 2.3454 1.99543 2.27868 2.01203C2.21197 2.02863 2.14858 2.06207 2.0924 2.11033C2.05707 2.17354 2.03512 2.24701 2.0285 2.32373C2.02188 2.40045 2.03081 2.47791 2.05456 2.54898L3.87327 9.98972L2.01474 17.4799C1.99731 17.5474 1.99529 17.6195 2.00894 17.6883C2.02259 17.757 2.05133 17.8194 2.09192 17.8685L2.13082 17.9174C2.18108 17.9617 2.23952 17.9892 2.3006 17.9974C2.36169 18.0056 2.42346 17.9942 2.48016 17.9643L17.7382 10.4099C17.7943 10.3941 17.8462 10.3603 17.8889 10.3118C17.9316 10.2634 17.9635 10.2019 17.9818 10.1334ZM16.0125 9.59581L4.41998 9.58825L2.86715 3.08221L16.0125 9.59581ZM2.86614 16.8942L4.46186 10.4148L15.9212 10.4222C14.5942 11.0799 11.2603 12.7331 2.86614 16.8942Z" fill="black"/>
</svg>
